<svg xmlns="http://www.w3.org/2000/svg" width="153.984" height="45" viewBox="0 0 153.984 45"><defs><style>.a{fill:#fff;}</style></defs><g transform="translate(0.984 -1.016)"><path class="a" d="M155.524,42.221a4.275,4.275,0,0,1-1.282,3.047,4.4,4.4,0,0,1-3.094,1.26H7.944a4.345,4.345,0,0,1-4.382-4.307V7.874A4.351,4.351,0,0,1,7.944,3.561h143.2a4.344,4.344,0,0,1,4.376,4.313V42.221Z" transform="translate(-2.546 -2.545)"/><path d="M157.546,44.05a4.553,4.553,0,0,1-1.3,3.191,4.389,4.389,0,0,1-3.135,1.32H8a4.476,4.476,0,0,1-4.44-4.511V8.078A4.482,4.482,0,0,1,8,3.561H153.11a4.475,4.475,0,0,1,4.434,4.517V44.05Z" transform="translate(-4.546 -2.545)"/><path class="a" d="M70.99,40.362a6.617,6.617,0,0,1,3.153-5.552A6.78,6.78,0,0,0,68.8,31.924c-2.246-.236-4.425,1.344-5.569,1.344-1.167,0-2.929-1.321-4.828-1.282a7.109,7.109,0,0,0-5.983,3.648c-2.587,4.478-.658,11.059,1.821,14.679,1.24,1.774,2.689,3.752,4.586,3.683,1.855-.075,2.549-1.181,4.788-1.181,2.219,0,2.869,1.181,4.8,1.137,1.991-.031,3.245-1.781,4.442-3.57A14.632,14.632,0,0,0,74.9,46.246,6.4,6.4,0,0,1,70.99,40.362Zm-3.654-10.82a6.512,6.512,0,0,0,1.491-4.668,6.637,6.637,0,0,0-4.291,2.219,6.2,6.2,0,0,0-1.53,4.5A5.482,5.482,0,0,0,67.336,29.543Z" transform="translate(-36.589 -18.057)"/><g transform="translate(48.383 19.898)"><path class="a" d="M182.64,87.432h-2.593l-1.42-4.462h-4.937l-1.353,4.462h-2.525L174.7,72.241h3.021ZM178.2,81.1l-1.285-3.967q-.2-.608-.766-2.862H176.1q-.226.969-.722,2.862L174.118,81.1Zm17,.723a6.2,6.2,0,0,1-1.519,4.417A4.453,4.453,0,0,1,190.3,87.68a3.381,3.381,0,0,1-3.129-1.554v5.748h-2.434v-11.8q0-1.755-.09-3.6h2.141l.136,1.736h.046a4.331,4.331,0,0,1,6.932-.43A6.056,6.056,0,0,1,195.2,81.82Zm-2.48.089A4.515,4.515,0,0,0,192,79.271a2.494,2.494,0,0,0-2.119-1.081,2.532,2.532,0,0,0-1.634.6,2.769,2.769,0,0,0-.958,1.567,3.177,3.177,0,0,0-.113.741v1.828a2.93,2.93,0,0,0,.733,2.018,2.434,2.434,0,0,0,1.9.823,2.5,2.5,0,0,0,2.141-1.059A4.661,4.661,0,0,0,192.718,81.91ZM207.8,81.82a6.2,6.2,0,0,1-1.519,4.417A4.456,4.456,0,0,1,202.9,87.68a3.381,3.381,0,0,1-3.129-1.554v5.748H197.34v-11.8q0-1.755-.09-3.6h2.141l.136,1.736h.046a4.333,4.333,0,0,1,6.933-.43A6.062,6.062,0,0,1,207.8,81.82Zm-2.481.089a4.515,4.515,0,0,0-.723-2.638,2.49,2.49,0,0,0-2.117-1.081,2.542,2.542,0,0,0-1.636.6,2.767,2.767,0,0,0-.957,1.567,3.251,3.251,0,0,0-.114.741v1.828a2.94,2.94,0,0,0,.732,2.018,2.439,2.439,0,0,0,1.907.823,2.493,2.493,0,0,0,2.141-1.059A4.662,4.662,0,0,0,205.32,81.91Zm16.572,1.261a4.058,4.058,0,0,1-1.351,3.156,5.988,5.988,0,0,1-4.139,1.33,7.226,7.226,0,0,1-3.935-.946l.563-2.029a6.774,6.774,0,0,0,3.517.947,3.319,3.319,0,0,0,2.141-.62,2.025,2.025,0,0,0,.768-1.655,2.121,2.121,0,0,0-.633-1.556,5.865,5.865,0,0,0-2.1-1.171q-3.991-1.488-3.992-4.352a3.842,3.842,0,0,1,1.409-3.065,5.573,5.573,0,0,1,3.732-1.2,7.376,7.376,0,0,1,3.449.721l-.611,1.984a6.032,6.032,0,0,0-2.92-.7,2.97,2.97,0,0,0-2.014.631,1.806,1.806,0,0,0-.611,1.377,1.86,1.86,0,0,0,.7,1.487,7.885,7.885,0,0,0,2.208,1.171,7.487,7.487,0,0,1,2.885,1.847,3.849,3.849,0,0,1,.928,2.635Zm8.069-4.866h-2.683v5.318q0,2.029,1.42,2.027a4.278,4.278,0,0,0,1.081-.113l.067,1.848a5.517,5.517,0,0,1-1.893.269,2.918,2.918,0,0,1-2.255-.88,4.315,4.315,0,0,1-.812-2.953V78.3h-1.6V76.474h1.6V74.468l2.391-.721v2.727h2.683Zm12.083,3.56a6.008,6.008,0,0,1-1.443,4.147,5.145,5.145,0,0,1-4.012,1.668,4.9,4.9,0,0,1-3.845-1.6,5.826,5.826,0,0,1-1.432-4.034,5.96,5.96,0,0,1,1.476-4.169,5.118,5.118,0,0,1,3.98-1.623,5.008,5.008,0,0,1,3.877,1.6A5.75,5.75,0,0,1,242.044,81.865Zm-2.523.056a4.9,4.9,0,0,0-.652-2.584,2.41,2.41,0,0,0-2.188-1.3,2.445,2.445,0,0,0-2.232,1.3,4.985,4.985,0,0,0-.653,2.63,4.89,4.89,0,0,0,.653,2.586,2.5,2.5,0,0,0,4.4-.022,4.924,4.924,0,0,0,.673-2.61Zm10.44-3.3a4.238,4.238,0,0,0-.767-.067,2.3,2.3,0,0,0-1.985.97,3.654,3.654,0,0,0-.607,2.163v5.748h-2.434v-7.5q0-1.725-.071-3.449h2.12l.089,2.1h.067a3.758,3.758,0,0,1,1.217-1.736,2.944,2.944,0,0,1,1.76-.587,3.909,3.909,0,0,1,.609.045l0,2.322Zm10.887,2.818a5.71,5.71,0,0,1-.089,1.1h-7.3a3.176,3.176,0,0,0,1.06,2.482,3.624,3.624,0,0,0,2.389.765,8.079,8.079,0,0,0,2.955-.517l.381,1.688a9.138,9.138,0,0,1-3.673.677,5.326,5.326,0,0,1-4-1.5,5.537,5.537,0,0,1-1.454-4.023,6.274,6.274,0,0,1,1.354-4.123,4.666,4.666,0,0,1,3.831-1.757,4.084,4.084,0,0,1,3.587,1.757A5.911,5.911,0,0,1,260.847,81.437Zm-2.321-.631a3.294,3.294,0,0,0-.473-1.871,2.126,2.126,0,0,0-1.939-1.016,2.308,2.308,0,0,0-1.938.992,3.635,3.635,0,0,0-.721,1.893l5.07,0Z" transform="translate(-169.812 -72.016)"/></g><g transform="translate(49.808 7.352)"><path class="a" d="M176.557,34.139a15.549,15.549,0,0,1-1.75-.089V26.706a13.256,13.256,0,0,1,2.061-.155c2.792,0,4.078,1.373,4.078,3.612C180.945,32.744,179.426,34.139,176.557,34.139Zm.409-6.647a4.885,4.885,0,0,0-.964.078v5.583a6.319,6.319,0,0,0,.808.033c1.829,0,2.871-1.041,2.871-2.991A2.436,2.436,0,0,0,176.966,27.492Zm7.986,6.7a2.563,2.563,0,0,1-2.593-2.769,2.622,2.622,0,0,1,2.682-2.847,2.542,2.542,0,0,1,2.593,2.759A2.638,2.638,0,0,1,184.952,34.2ZM185,29.453c-.864,0-1.418.808-1.418,1.938,0,1.108.565,1.917,1.407,1.917s1.407-.864,1.407-1.939c0-1.1-.554-1.916-1.4-1.916Zm11.609-.764-1.684,5.384h-1.1l-.7-2.338A17.718,17.718,0,0,1,192.694,30h-.023a11.651,11.651,0,0,1-.432,1.739l-.742,2.338h-1.109L188.8,28.69h1.23l.61,2.559q.216.914.365,1.728h.023c.088-.453.232-1.019.443-1.717l.765-2.57h.975l.732,2.515c.177.61.321,1.208.433,1.773h.032a15.491,15.491,0,0,1,.365-1.773l.654-2.515h1.175Zm6.2,5.384h-1.2V30.982c0-.952-.365-1.429-1.086-1.429a1.243,1.243,0,0,0-1.2,1.318v3.2h-1.2V30.228c0-.476-.011-.986-.045-1.54h1.053l.056.831h.033a1.935,1.935,0,0,1,1.707-.941c1.13,0,1.873.864,1.873,2.271v3.224Zm3.3,0h-1.2V26.219h1.2Zm4.363.122a2.563,2.563,0,0,1-2.593-2.769,2.622,2.622,0,0,1,2.681-2.847,2.542,2.542,0,0,1,2.593,2.759A2.637,2.637,0,0,1,210.47,34.2Zm.045-4.742c-.864,0-1.418.808-1.418,1.938,0,1.108.566,1.917,1.406,1.917s1.407-.864,1.407-1.939c0-1.1-.551-1.916-1.394-1.916Zm7.355,4.62-.087-.62h-.032a1.839,1.839,0,0,1-1.575.742,1.565,1.565,0,0,1-1.65-1.584c0-1.329,1.152-2.016,3.147-2.016v-.1c0-.709-.376-1.064-1.118-1.064a2.52,2.52,0,0,0-1.407.4l-.243-.787a3.443,3.443,0,0,1,1.849-.466c1.407,0,2.117.742,2.117,2.227v1.983a8.128,8.128,0,0,0,.078,1.285h-1.079Zm-.164-2.681c-1.329,0-2,.322-2,1.086a.763.763,0,0,0,.821.841,1.146,1.146,0,0,0,1.175-1.1Zm6.977,2.681-.056-.864h-.033a1.805,1.805,0,0,1-1.729.986c-1.3,0-2.26-1.142-2.26-2.748,0-1.684,1-2.87,2.358-2.87a1.618,1.618,0,0,1,1.519.732h.024v-3.09h1.2v6.4c0,.521.013,1.008.045,1.451Zm-.177-3.168a1.3,1.3,0,0,0-1.261-1.4c-.887,0-1.43.787-1.43,1.894,0,1.086.563,1.829,1.406,1.829A1.344,1.344,0,0,0,224.5,31.8v-.9ZM233.3,34.2a2.562,2.562,0,0,1-2.592-2.769,2.622,2.622,0,0,1,2.681-2.847,2.542,2.542,0,0,1,2.593,2.759A2.637,2.637,0,0,1,233.3,34.2Zm.045-4.742c-.863,0-1.417.808-1.417,1.938,0,1.108.565,1.917,1.406,1.917s1.407-.864,1.407-1.939c0-1.1-.552-1.916-1.4-1.916Zm9.073,4.62h-1.2V30.982c0-.952-.365-1.429-1.086-1.429a1.242,1.242,0,0,0-1.2,1.318v3.2h-1.2V30.228c0-.476-.011-.986-.045-1.54h1.053l.056.831h.033a1.934,1.934,0,0,1,1.706-.942c1.13,0,1.874.864,1.874,2.271Zm8.051-4.486h-1.317V32.2c0,.666.231,1,.7,1a2.358,2.358,0,0,0,.531-.056l.033.909a2.651,2.651,0,0,1-.928.134c-.943,0-1.507-.521-1.507-1.884V29.587h-.786v-.9h.786V27.7l1.175-.355v1.34h1.317Zm6.335,4.486h-1.2V31c0-.963-.364-1.451-1.086-1.451a1.174,1.174,0,0,0-1.2,1.274v3.245h-1.2V26.219h1.2v3.234h.024a1.815,1.815,0,0,1,1.619-.876c1.14,0,1.836.886,1.836,2.293v3.2Zm6.49-2.4H259.7a1.545,1.545,0,0,0,1.7,1.595,4.045,4.045,0,0,0,1.451-.255l.186.831a4.5,4.5,0,0,1-1.806.332,2.5,2.5,0,0,1-2.681-2.713,2.629,2.629,0,0,1,2.546-2.892,2.261,2.261,0,0,1,2.239,2.559,2.3,2.3,0,0,1-.041.542Zm-1.1-.853c0-.831-.419-1.418-1.184-1.418a1.419,1.419,0,0,0-1.309,1.418Z" transform="translate(-174.806 -26.219)"/></g></g></svg>