<svg xmlns="http://www.w3.org/2000/svg" xmlns:xlink="http://www.w3.org/1999/xlink" width="125" height="24" viewBox="0 0 125 24"><defs><style>.a{fill:#182849;}.b{clip-path:url(#a);}.c{clip-path:url(#b);}.d{clip-path:url(#c);}.e{clip-path:url(#d);}</style><clipPath id="a"><path class="a" d="M1387.459,670.766c-.044.471-.008,8.189-.008,8.189l22.807,15.188h6.8a.434.434,0,0,0,.442-.428c.016-.432,0-8.877,0-8.877l-21.678-14.493h-7.9a.437.437,0,0,0-.465.423" transform="translate(-1387.437 -670.343)"/></clipPath><clipPath id="b"><path class="a" d="M1387.465,708.105a.448.448,0,0,0,.474.457H1398.4a.372.372,0,0,0,.421-.415v-2.968l-11.359-7.64Z" transform="translate(-1387.465 -697.539)"/></clipPath><clipPath id="c"><path class="a" d="M1425.706,670.375c0,.465.011,2.851,0,2.851l11.176,7.357V670.4s.07-.457-.463-.457h-10.234a.439.439,0,0,0-.483.436" transform="translate(-1425.706 -669.939)"/></clipPath><clipPath id="d"><path class="a" d="M1455.72,670.411v9.833h-7.492l7.493,4.935-.007.634V693.4s-.06.441.483.441h10.573c.543,0,.485-.443.485-.443V670.434s.06-.441-.465-.441h-10.6a.418.418,0,0,0-.467.419" transform="translate(-1448.228 -669.992)"/></clipPath></defs><g transform="translate(-1387.437 -669.939)"><g transform="translate(1447.313 670.114)"><path class="a" d="M1514.966,678.817h-.006v-.006l-4.4-5.662v5.221a.722.722,0,0,1-1.444,0v-7.332a.686.686,0,0,1,.135-.416.7.7,0,0,1,.355-.264.684.684,0,0,1,.441-.012.7.7,0,0,1,.361.251l4.4,5.668v-5.227a.692.692,0,0,1,.208-.508.7.7,0,0,1,.514-.214.731.731,0,0,1,.722.723v7.344a.172.172,0,0,1-.006.037v.03a.151.151,0,0,1-.006.037.088.088,0,0,1-.006.037l-.006.03a.09.09,0,0,1-.012.037.116.116,0,0,1-.012.031.215.215,0,0,1-.012.037l-.012.031-.018.03-.018.037-.019.018a.215.215,0,0,1-.024.037l-.019.024-.024.024c-.012.017-.02.025-.024.025s-.008.012-.025.024a.161.161,0,0,1-.03.025c.012-.008.01-.007-.006.005l-.006.006a.87.87,0,0,1-.091.061h-.006c-.033.016-.066.031-.1.043l-.012.006a.475.475,0,0,1-.1.025l-.018.005a.857.857,0,0,1-.1.006.524.524,0,0,1-.08-.006c.009,0,0,0-.012,0a.508.508,0,0,1-.061-.012s0,0-.025-.006a.37.37,0,0,1-.049-.012.064.064,0,0,1-.024-.012.12.12,0,0,1-.049-.018.033.033,0,0,1-.025-.012.3.3,0,0,0-.043-.018.183.183,0,0,1-.024-.018l-.043-.031a.144.144,0,0,1-.024-.018.492.492,0,0,1-.055-.049l-.006-.006v-.006l-.024-.025Z" transform="translate(-1509.114 -670.303)"/><path class="a" d="M1540.429,670.315a.711.711,0,0,1,.71.71v4.933a3.131,3.131,0,1,1-6.262,0v-4.933a.71.71,0,1,1,1.42,0v4.933a1.711,1.711,0,1,0,3.422,0v-4.933a.711.711,0,0,1,.71-.71Z" transform="translate(-1522.088 -670.303)"/><path class="a" d="M1560.06,671.736h-1.818a.7.7,0,0,1-.515-.214.726.726,0,0,1,0-1.016.7.7,0,0,1,.515-.214h5.086a.722.722,0,0,1,0,1.445H1561.5v6.622a.7.7,0,0,1-.214.514.724.724,0,0,1-1.016,0,.7.7,0,0,1-.214-.514Z" transform="translate(-1533.491 -670.291)"/><path class="a" d="M1586.327,672.844a2.348,2.348,0,0,1-.5,1.463,2.629,2.629,0,0,1-1.273.924l1.39,2.816a.729.729,0,0,1-.331.961.729.729,0,0,1-.318.073.665.665,0,0,1-.643-.4l-1.622-3.287h-1.242v2.919a.721.721,0,0,1-.722.716.71.71,0,0,1-.716-.716v-7.3a.721.721,0,0,1,.716-.722h2.534a2.715,2.715,0,0,1,1.928.747A2.38,2.38,0,0,1,1586.327,672.844Zm-2.682,1.107a1.38,1.38,0,0,0,.882-.337,1.008,1.008,0,0,0-.019-1.561,1.355,1.355,0,0,0-.912-.325h-1.812v2.222Z" transform="translate(-1544.987 -670.291)"/><path class="a" d="M1603.811,679.124a.732.732,0,0,1-.722-.722v-7.3a.722.722,0,0,1,1.444,0v7.3a.732.732,0,0,1-.722.722Z" transform="translate(-1556.44 -670.334)"/></g><g transform="translate(1447.313 684.931)"><path class="a" d="M1515.064,710.665a.731.731,0,0,1-.729-.729V707h-3.77v2.932a.71.71,0,0,1-.208.514.728.728,0,0,1-1.242-.514v-7.314a.727.727,0,0,1,1.242-.514.71.71,0,0,1,.208.514v2.932h3.77v-2.932a.729.729,0,0,1,1.457,0v7.314a.731.731,0,0,1-.728.729Z" transform="translate(-1509.114 -701.875)"/><path class="a" d="M1539.4,709.2a.681.681,0,0,1,.508.214.7.7,0,0,1,.214.514.731.731,0,0,1-.722.723h-4.432a.732.732,0,0,1-.722-.723v-7.339a.69.69,0,0,1,.214-.514.68.68,0,0,1,.508-.214h.006l4.425.012a.7.7,0,0,1,.514.214.712.712,0,0,1,.208.514.73.73,0,0,1-.722.722h-.006l-3.7-.012v2.222h2.669a.712.712,0,0,1,.514.208.724.724,0,0,1,0,1.028.712.712,0,0,1-.514.208H1535.7V709.2Z" transform="translate(-1521.771 -701.856)"/><path class="a" d="M1562.341,704.409a2.348,2.348,0,0,1-.5,1.463,2.627,2.627,0,0,1-1.273.924l1.39,2.816a.73.73,0,0,1-.331.961.724.724,0,0,1-.318.074.666.666,0,0,1-.643-.4l-1.622-3.287H1557.8v2.92a.721.721,0,0,1-.722.716.71.71,0,0,1-.716-.716v-7.3a.721.721,0,0,1,.716-.723h2.534a2.715,2.715,0,0,1,1.928.747A2.38,2.38,0,0,1,1562.341,704.409Zm-2.681,1.107a1.38,1.38,0,0,0,.882-.336,1.008,1.008,0,0,0-.018-1.561,1.358,1.358,0,0,0-.912-.324H1557.8v2.221Z" transform="translate(-1532.907 -701.856)"/><path class="a" d="M1582.474,710.646a4.4,4.4,0,1,1,3.109-1.292A4.217,4.217,0,0,1,1582.474,710.646Zm0-7.345a2.946,2.946,0,1,0,2.087.863A2.837,2.837,0,0,0,1582.474,703.3Z" transform="translate(-1543.845 -701.856)"/><path class="a" d="M1612.1,709.2a.68.68,0,0,1,.508.214.7.7,0,0,1,.214.514.732.732,0,0,1-.722.723h-4.432a.732.732,0,0,1-.722-.723v-7.339a.69.69,0,0,1,.214-.514.682.682,0,0,1,.508-.214h.007l4.426.012a.7.7,0,0,1,.514.214.712.712,0,0,1,.208.514.731.731,0,0,1-.722.722h-.007l-3.7-.012v2.222h2.669a.711.711,0,0,1,.514.208.723.723,0,0,1,0,1.028.711.711,0,0,1-.514.208H1608.4V709.2Z" transform="translate(-1558.384 -701.856)"/><path class="a" d="M1634.334,708.051a2.587,2.587,0,0,1-.875,1.854,2.843,2.843,0,0,1-1.983.76,3.687,3.687,0,0,1-1.787-.429,2.319,2.319,0,0,1-1.206-1.494.705.705,0,0,1,.073-.544.694.694,0,0,1,.441-.331.707.707,0,0,1,.545.073.7.7,0,0,1,.331.441,1.013,1.013,0,0,0,.6.643,2.384,2.384,0,0,0,1,.2,1.439,1.439,0,0,0,.985-.361,1.191,1.191,0,0,0,.441-.882.757.757,0,0,0-.226-.569A1.721,1.721,0,0,0,1631.4,707h-.031a3.089,3.089,0,0,1-2.3-.863,2.143,2.143,0,0,1-.612-1.622,2.6,2.6,0,0,1,.875-1.861,2.832,2.832,0,0,1,1.984-.759,3.683,3.683,0,0,1,1.787.428,2.319,2.319,0,0,1,1.206,1.493.692.692,0,0,1-.079.545.673.673,0,0,1-.434.331.707.707,0,0,1-.545-.073.7.7,0,0,1-.331-.441,1.013,1.013,0,0,0-.606-.642,2.341,2.341,0,0,0-1-.2,1.462,1.462,0,0,0-.992.361,1.216,1.216,0,0,0-.435.881.778.778,0,0,0,.227.575,1.738,1.738,0,0,0,1.273.41h.03a3.081,3.081,0,0,1,2.3.869A2.133,2.133,0,0,1,1634.334,708.051Z" transform="translate(-1569.215 -701.875)"/></g><path class="a" d="M1387.451,678.954l22.807,15.188h6.8a.433.433,0,0,0,.441-.428c.016-.432,0-8.877,0-8.877l-21.678-14.493h-7.86a.447.447,0,0,0-.5.421c-.044.471-.008,8.189-.008,8.189" transform="translate(0 -0.204)"/><g transform="translate(1387.437 670.14)"><g class="b"><rect class="a" width="50.07" height="25.048" transform="translate(-0.431 -0.561)"/></g></g><path class="a" d="M1387.465,697.539V708.1a.448.448,0,0,0,.474.457H1398.4a.372.372,0,0,0,.421-.415v-2.968Z" transform="translate(-0.014 -14.751)"/><g transform="translate(1387.451 682.788)"><g class="c" transform="translate(0 0)"><rect class="a" width="50.07" height="25.944" transform="translate(-0.445 -14.081)"/></g></g><path class="a" d="M1425.71,673.226l11.176,7.357V670.4s.07-.457-.463-.457h-10.216s-.5-.03-.5.435.011,2.851,0,2.851" transform="translate(-19.36 -0.001)"/><g transform="translate(1406.347 669.939)"><g class="d" transform="translate(0)"><rect class="a" width="50.07" height="25.944" transform="translate(-19.428 -0.381)"/></g></g><path class="a" d="M1455.715,685.812V693.4s-.06.441.482.441h10.573c.543,0,.484-.443.484-.443V670.434s.061-.441-.464-.441h-10.569s-.5-.045-.5.418v9.832h-7.492l7.493,4.935" transform="translate(-30.763 -0.027)"/><g transform="translate(1417.465 669.965)"><g class="e" transform="translate(0 0)"><rect class="a" width="50.07" height="25.05" transform="translate(-30.608 -0.393)"/></g></g></g></svg>